<svg width="17" height="24" fill="none" xmlns="http://www.w3.org/2000/svg"><path d="M1.396 6.624c-.084-1.198.181-2.378.885-3.327.61-.86 1.404-1.33 2.361-1.605.807-.24 1.335.054 1.568.95.332 1.34.806 2.68.978 4.092.054.62-.347 1.5-.782 1.952-1.09 1.073-.864 1.854-.036 3.478.256.524.664 1.43 1.458 2.628.828 1.207 1.266 1.855 2.329 1.306 1.18-.594 2.041-.212 2.932.746.604.693 1.268 1.288 1.872 1.98.873 1.03.834 1.74.151 2.467-1.229 1.34-3.258 1.783-4.768.886-.834-.489-1.664-1.128-2.325-1.874-2.915-3.32-5.016-7.182-6.282-11.54a10.989 10.989 0 01-.34-2.139z"/></svg>