<svg width="44" height="17" fill="none" xmlns="http://www.w3.org/2000/svg"><path d="M21.402 0l-4.38 13.175h-3.328L10.75 4.254l-3.041 8.921h-3.31L0 0h3.213l3.022 9.26L9.391 0h2.869l3.06 9.336L18.438 0h2.964zm4.904 2.899c1.594 0 2.818.376 3.672 1.129.855.74 1.282 1.863 1.282 3.369v5.778h-2.793v-1.26c-.56.94-1.606 1.41-3.136 1.41-.79 0-1.48-.13-2.066-.394-.574-.264-1.014-.628-1.32-1.092a2.808 2.808 0 01-.459-1.581c0-.941.357-1.682 1.071-2.221.727-.54 1.843-.81 3.347-.81h2.372c0-.64-.198-1.129-.593-1.468-.395-.35-.988-.527-1.779-.527-.548 0-1.09.088-1.625.264a4.17 4.17 0 00-1.34.678l-1.07-2.052c.56-.389 1.23-.69 2.008-.903.79-.214 1.6-.32 2.43-.32zm-.23 8.45c.51 0 .963-.112 1.358-.338.396-.239.676-.584.842-1.035V8.94H26.23c-1.224 0-1.837.396-1.837 1.186 0 .377.147.678.44.904.306.213.72.32 1.244.32zM43.987 3.05l-4.648 10.746c-.472 1.167-1.058 1.99-1.76 2.466-.688.477-1.523.715-2.505.715a5.302 5.302 0 01-1.588-.244c-.522-.163-.95-.39-1.281-.678l1.09-2.09a2.6 2.6 0 001.683.64c.408 0 .74-.1.995-.3.255-.189.484-.509.688-.96l.039-.094-4.457-10.202h3.08l2.888 6.87 2.907-6.87h2.869z" fill="#141517"/><path d="M44 3.048l-4.648 10.748c-.471 1.167-1.058 1.989-1.76 2.465-.688.477-1.523.716-2.505.716a5.302 5.302 0 01-1.587-.245c-.523-.163-.95-.39-1.282-.678l1.09-2.089a2.601 2.601 0 001.684.64c.408 0 .74-.1.994-.301.255-.188.485-.508.689-.96l.038-.094 1.51-3.332 2.908-6.87H44z" fill="#FE7865"/></svg>